<?xml version="1.0" encoding="UTF-8" standalone="no"?>
<!-- Created with Inkscape (http://www.inkscape.org/) -->

<svg
   xmlns:dc="http://purl.org/dc/elements/1.1/"
   xmlns:cc="http://creativecommons.org/ns#"
   xmlns:rdf="http://www.w3.org/1999/02/22-rdf-syntax-ns#"
   xmlns:svg="http://www.w3.org/2000/svg"
   xmlns="http://www.w3.org/2000/svg"
   xmlns:sodipodi="http://sodipodi.sourceforge.net/DTD/sodipodi-0.dtd"
   xmlns:inkscape="http://www.inkscape.org/namespaces/inkscape"
   width="44.979168mm"
   height="220.37146mm"
   viewBox="0 0 44.979168 220.37146"
   version="1.1"
   id="svg4841"
   inkscape:version="0.92.4 (5da689c313, 2019-01-14)"
   sodipodi:docname="tassel.svg">
  <defs
     id="defs4835" />
  <sodipodi:namedview
     id="base"
     pagecolor="#ffffff"
     bordercolor="#666666"
     borderopacity="1.0"
     inkscape:pageopacity="0.0"
     inkscape:pageshadow="2"
     inkscape:zoom="0.35"
     inkscape:cx="-250.71427"
     inkscape:cy="379.30713"
     inkscape:document-units="mm"
     inkscape:current-layer="layer1"
     showgrid="false"
     inkscape:window-width="3440"
     inkscape:window-height="1411"
     inkscape:window-x="-9"
     inkscape:window-y="-9"
     inkscape:window-maximized="1" />
  <metadata
     id="metadata4838">
    <rdf:RDF>
      <cc:Work
         rdf:about="">
        <dc:format>image/svg+xml</dc:format>
        <dc:type
           rdf:resource="http://purl.org/dc/dcmitype/StillImage" />
        <dc:title></dc:title>
      </cc:Work>
    </rdf:RDF>
  </metadata>
  <g
     inkscape:label="Layer 1"
     inkscape:groupmode="layer"
     id="layer1"
     transform="translate(-73.516365,-28.820223)">
    <g
       transform="matrix(0.26458333,0,0,0.26458333,-153.20509,-107.6254)"
       id="g229">
      <path
         d="m 941.9,664.1 c -5.1,0 -9.3,-4.1 -9.3,-9.2 v -130 c 0,-5.1 4.1,-9.2 9.3,-9.2 5.1,0 9.3,4.1 9.3,9.2 v 129.9 c -0.1,5.1 -4.2,9.3 -9.3,9.3 z"
         id="path209"
         inkscape:connector-curvature="0"
         style="fill:#535353;fill-opacity:1" />
      <path
         d="m 885.9,1348.6 c -3.5,0 -6.4,-2.9 -6.4,-6.4 V 839 c 0,-3.5 2.9,-6.4 6.4,-6.4 3.5,0 6.4,2.9 6.4,6.4 v 503.3 c 0,3.5 -2.9,6.3 -6.4,6.3 z"
         id="path211"
         inkscape:connector-curvature="0"
         style="fill:#535353;fill-opacity:1" />
      <path
         d="m 908.3,1348.6 c -3.5,0 -6.4,-2.9 -6.4,-6.4 V 856.9 c 0,-3.5 2.9,-6.4 6.4,-6.4 3.5,0 6.4,2.9 6.4,6.4 v 485.4 c 0,3.5 -2.9,6.3 -6.4,6.3 z"
         id="path213"
         inkscape:connector-curvature="0"
         style="fill:#535353;fill-opacity:1" />
      <path
         d="m 930.7,1348.6 c -3.5,0 -6.4,-2.9 -6.4,-6.4 V 861.6 c 0,-3.5 2.9,-6.4 6.4,-6.4 3.5,0 6.4,2.9 6.4,6.4 v 480.6 c 0,3.6 -2.9,6.4 -6.4,6.4 z"
         id="path215"
         inkscape:connector-curvature="0"
         style="fill:#535353;fill-opacity:1" />
      <path
         d="m 953,1348.6 c -3.5,0 -6.4,-2.9 -6.4,-6.4 V 861.6 c 0,-3.5 2.9,-6.4 6.4,-6.4 3.5,0 6.4,2.9 6.4,6.4 v 480.6 c 0.1,3.6 -2.8,6.4 -6.4,6.4 z"
         id="path217"
         inkscape:connector-curvature="0"
         style="fill:#535353;fill-opacity:1" />
      <path
         d="m 975.4,1348.6 c -3.5,0 -6.4,-2.9 -6.4,-6.4 V 856.9 c 0,-3.5 2.9,-6.4 6.4,-6.4 3.5,0 6.4,2.9 6.4,6.4 v 485.4 c 0,3.5 -2.8,6.3 -6.4,6.3 z"
         id="path219"
         inkscape:connector-curvature="0"
         style="fill:#535353;fill-opacity:1" />
      <path
         d="m 997.8,1348.6 c -3.5,0 -6.4,-2.9 -6.4,-6.4 V 839 c 0,-3.5 2.9,-6.4 6.4,-6.4 3.5,0 6.4,2.9 6.4,6.4 v 503.3 c 0,3.5 -2.9,6.3 -6.4,6.3 z"
         id="path221"
         inkscape:connector-curvature="0"
         style="fill:#535353;fill-opacity:1" />
      <path
         d="m 1026.9,811.8 c 0,46.7 -38.1,55.2 -85,55.2 -46.9,0 -85,-8.5 -85,-55.2 0,-46.7 38.1,-84.5 85,-84.5 46.9,0 85,37.8 85,84.5 z"
         id="path223"
         inkscape:connector-curvature="0"
         style="fill:#535353;fill-opacity:1" />
      <ellipse
         cx="941.90002"
         cy="707.40002"
         rx="26.5"
         ry="26.299999"
         id="ellipse225"
         style="fill:#535353;fill-opacity:1" />
      <ellipse
         cx="941.90002"
         cy="671"
         rx="26.5"
         ry="26.299999"
         id="ellipse227"
         style="fill:#535353;fill-opacity:1"
         inkscape:label="ellipse227" />
    </g>
  </g>
</svg>
